<?xml version="1.0" encoding="UTF-8" standalone="no"?>
<!-- Created with Inkscape (http://www.inkscape.org/) -->

<svg
   width="128"
   height="128"
   viewBox="0 0 128 128"
   version="1.1"
   id="svg1"
   inkscape:version="1.3.2 (091e20ef0f, 2023-11-25)"
   sodipodi:docname="iconos_cronotareas.svg"
   xmlns:inkscape="http://www.inkscape.org/namespaces/inkscape"
   xmlns:sodipodi="http://sodipodi.sourceforge.net/DTD/sodipodi-0.dtd"
   xmlns="http://www.w3.org/2000/svg"
   xmlns:svg="http://www.w3.org/2000/svg">
  <sodipodi:namedview
     id="namedview1"
     pagecolor="#505050"
     bordercolor="#eeeeee"
     borderopacity="1"
     inkscape:showpageshadow="0"
     inkscape:pageopacity="0"
     inkscape:pagecheckerboard="0"
     inkscape:deskcolor="#505050"
     inkscape:document-units="px"
     showgrid="true"
     inkscape:zoom="2.8284271"
     inkscape:cx="27.577164"
     inkscape:cy="77.958522"
     inkscape:window-width="1920"
     inkscape:window-height="1053"
     inkscape:window-x="0"
     inkscape:window-y="27"
     inkscape:window-maximized="1"
     inkscape:current-layer="layer2">
    <inkscape:grid
       id="grid1"
       units="px"
       originx="0"
       originy="0"
       spacingx="1"
       spacingy="1"
       empcolor="#e59f00"
       empopacity="0.30196078"
       color="#0099e5"
       opacity="0.14901961"
       empspacing="8"
       dotted="false"
       gridanglex="30"
       gridanglez="30"
       visible="true" />
  </sodipodi:namedview>
  <defs
     id="defs1">
    <inkscape:path-effect
       effect="fillet_chamfer"
       id="path-effect6"
       is_visible="true"
       lpeversion="1"
       nodesatellites_param="F,0,0,1,0,1.9638493,0,1 @ F,0,0,1,0,1.9638493,0,1 @ F,0,0,1,0,1.9964607,0,1"
       radius="0"
       unit="px"
       method="auto"
       mode="F"
       chamfer_steps="1"
       flexible="false"
       use_knot_distance="true"
       apply_no_radius="true"
       apply_with_radius="true"
       only_selected="false"
       hide_knots="false" />
    <inkscape:path-effect
       effect="fillet_chamfer"
       id="path-effect5"
       is_visible="true"
       lpeversion="1"
       nodesatellites_param="F,0,0,1,0,2,0,1 @ F,0,0,1,0,2,0,1 @ F,0,0,1,0,2,0,1 @ F,0,0,1,0,2,0,1"
       radius="0"
       unit="px"
       method="auto"
       mode="F"
       chamfer_steps="1"
       flexible="false"
       use_knot_distance="true"
       apply_no_radius="true"
       apply_with_radius="true"
       only_selected="false"
       hide_knots="false" />
    <inkscape:path-effect
       effect="fillet_chamfer"
       id="path-effect4"
       is_visible="true"
       lpeversion="1"
       nodesatellites_param="F,0,0,1,0,2,0,1 @ F,0,0,1,0,2,0,1 @ F,0,0,1,0,2,0,1 @ F,0,0,1,0,2,0,1"
       radius="0"
       unit="px"
       method="auto"
       mode="F"
       chamfer_steps="1"
       flexible="false"
       use_knot_distance="true"
       apply_no_radius="true"
       apply_with_radius="true"
       only_selected="false"
       hide_knots="false" />
    <inkscape:path-effect
       effect="fillet_chamfer"
       id="path-effect3"
       is_visible="true"
       lpeversion="1"
       nodesatellites_param="F,0,0,1,0,2,0,1 @ F,0,1,1,0,2,0,1 @ F,0,1,1,0,2,0,1"
       radius="0"
       unit="px"
       method="auto"
       mode="F"
       chamfer_steps="1"
       flexible="false"
       use_knot_distance="true"
       apply_no_radius="true"
       apply_with_radius="true"
       only_selected="false"
       hide_knots="false" />
    <inkscape:path-effect
       effect="fillet_chamfer"
       id="path-effect2"
       is_visible="true"
       lpeversion="1"
       nodesatellites_param="F,0,1,1,0,2,0,1 @ F,0,1,1,0,2,0,1 @ F,0,1,1,0,2,0,1 @ F,0,1,1,0,2,0,1 @ F,0,1,1,0,2,0,1 @ F,0,1,1,0,2,0,1 @ F,0,1,1,0,2,0,1 @ F,0,1,1,0,2,0,1 @ F,0,1,1,0,2,0,1 @ F,0,0,1,0,2,0,1 @ F,0,1,1,0,2,0,1 @ F,0,1,1,0,2,0,1"
       radius="0"
       unit="px"
       method="auto"
       mode="F"
       chamfer_steps="1"
       flexible="false"
       use_knot_distance="true"
       apply_no_radius="true"
       apply_with_radius="true"
       only_selected="false"
       hide_knots="false" />
  </defs>
  <g
     inkscape:label="Capa 1"
     inkscape:groupmode="layer"
     id="layer1"
     style="display:none">
    <path
       style="display:inline;fill:#ffffff;stroke-width:1.01905"
       id="rect1"
       width="27"
       height="96"
       x="24"
       y="16"
       inkscape:path-effect="#path-effect4"
       sodipodi:type="rect"
       d="m 26,16 h 23 a 2,2 45 0 1 2,2 v 92 a 2,2 135 0 1 -2,2 H 26 a 2,2 45 0 1 -2,-2 V 18 a 2,2 135 0 1 2,-2 z" />
    <path
       style="display:inline;fill:#ffffff;stroke-width:1.01905"
       id="rect1-5"
       width="27"
       height="96"
       x="77"
       y="16"
       inkscape:path-effect="#path-effect5"
       sodipodi:type="rect"
       d="m 79,16 h 23 a 2,2 45 0 1 2,2 v 92 a 2,2 135 0 1 -2,2 H 79 a 2,2 45 0 1 -2,-2 V 18 a 2,2 135 0 1 2,-2 z" />
  </g>
  <g
     inkscape:groupmode="layer"
     id="layer2"
     inkscape:label="Capa 2"
     style="display:inline">
    <path
       style="display:inline;fill:#ffffff;stroke-width:1"
       d="m 24,17.963849 v 92.072301 a 1.1119126,1.1119126 29.518122 0 0 1.683987,0.95346 L 102.28805,65.027171 a 1.1978764,1.1978764 90 0 0 0,-2.054342 L 25.683987,17.010392 A 1.1119126,1.1119126 150.48188 0 0 24,17.963849 Z"
       id="path1"
       sodipodi:nodetypes="cccc"
       transform="matrix(1.014358,0,0,1.0184081,-0.34560946,-1.1781184)"
       inkscape:path-effect="#path-effect6"
       inkscape:original-d="m 24,16 v 96 l 80,-48 z" />
  </g>
  <g
     inkscape:groupmode="layer"
     id="layer3"
     inkscape:label="Capa 3"
     style="display:none">
    <path
       id="rect2"
       style="fill:#ffffff;stroke-width:1.22474"
       d="m 52,18 0,32 a 2,2 135 0 1 -2,2 l -32,0 a 2,2 135 0 0 -2,2 v 20 a 2,2 45 0 0 2,2 h 32 a 2,2 45 0 1 2,2 l 0,32 a 2,2 45 0 0 2,2 l 20,0 a 2,2 135 0 0 2,-2 V 78 a 2,2 135 0 1 2,-2 h 32 a 2,2 135 0 0 2,-2 l 0,-20 a 2,2 45 0 0 -2,-2 L 78,52 A 2,2 45 0 1 76,50 V 18 A 2,2 45 0 0 74,16 H 54 a 2,2 135 0 0 -2,2 z"
       inkscape:path-effect="#path-effect2"
       inkscape:original-d="M 52,16 V 52 H 16 v 24 h 36 v 36 H 76 V 76 h 36 V 52 H 76 V 16 Z" />
  </g>
</svg>
